# xmcd
#
# Track frame offsets: 
#        150
#        10782
#        22955
#        34990
#        45352
#        57775
#        68795
#        78067
#        87407
#        99125
#        108650
#        117680
#        129372
#        140042
#        151102
#        162992
#        176252
#        186192
#        199245
#        209320
#        218522
#        230192
#        239297
#        250477
#        259877
#        273110
#        283785
#        294725
#        304065
#        314360
#
# Disc length: 4315 seconds
#
# Revision: 0
# Processed by: cddbd v1.4PL0 Copyright (c) Steve Scherf et al.
# Submitted via: ExactAudioCopy v0.90b3
#
DISCID=ab10d91e
DTITLE=Waylon Jennings - The Journey: Destiny's Child - Disc 3
DYEAR=1900
DGENRE=Country
TTITLE0=I Wonder Just Where I Went Wrong (1965)
TTITLE1=Another Bridge To Burn (1966)
TTITLE2=Now Everybody Knows (1966)
TTITLE3=Down Came The World (1966)
TTITLE4=I'm A Man Of Constant Sorrow (1966)
TTITLE5=Dream Baby (How Long Must I Dream) (1967)
TTITLE6=Time Will Tell The Story (1966)
TTITLE7=Stop The World (And Let Me Off) (1965)
TTITLE8=The Dark Side Of Fame (1965)
TTITLE9=That's The Chance I'll Have To Take (1965)
TTITLE10=Cindy Of New Orleans (1966)
TTITLE11=What's Left Of Me (1966)
TTITLE12=Look Into My Teardrops (1965)
TTITLE13=Anita, You're Dreaming (1965)
TTITLE14=What Makes A Man Wander (1966)
TTITLE15=I Don't Mind (1966)
TTITLE16=Just For You (1966)
TTITLE17=Baby, Don't Be Looking In My Mind (1966)
TTITLE18=My World (1967)
TTITLE19=Time To Burn Again (1966)
TTITLE20=Falling For You (1966)
TTITLE21=If You Really Want Me To I'll Go (1966)
TTITLE22=(That's What You Get) For Lovin' Me (1966)
TTITLE23=But That's Alright (1966)
TTITLE24=Doesn't Anybody Know My Name (1966)
TTITLE25=Taos, New Mexico (1967)
TTITLE26=You're Gonna Wonder About Me (1966)
TTITLE27=Norwegian Wood (1966)
TTITLE28=I Tremble For You (1967)
TTITLE29=Leavin' Town (1966)
EXTD=
EXTT0=
EXTT1=
EXTT2=
EXTT3=
EXTT4=
EXTT5=
EXTT6=
EXTT7=
EXTT8=
EXTT9=
EXTT10=
EXTT11=
EXTT12=
EXTT13=
EXTT14=
EXTT15=
EXTT16=
EXTT17=
EXTT18=
EXTT19=
EXTT20=
EXTT21=
EXTT22=
EXTT23=
EXTT24=
EXTT25=
EXTT26=
EXTT27=
EXTT28=
EXTT29=
PLAYORDER=
